#!OML:ASF F:\VICON\USERDATA\INSTALL\rory3\rory3.ASF
:FULLY-SPECIFIED
:DEGREES
529
root 11.7464 17.6985 8.96119 -2.19851 1.22503 6.62521
lowerback 10.8969 2.068 -0.859494
upperback 1.47665 2.68182 0.757181
thorax -4.6394 1.34508 0.877648
lowerneck -16.4416 1.7711 -9.65606
upperneck 41.9181 5.22791 3.36922
head 18.1064 1.1023 4.36014
rclavicle 1.40143e-014 -3.18055e-015
rhumerus -34.797 -19.8686 -65.6228
rradius 34.905
rwrist 4.95317
rhand -16.9754 8.72974
rfingers 7.12502
rthumb 9.2591 -21.047
lclavicle 1.40143e-014 -3.18055e-015
lhumerus -34.348 11.7389 82.1069
lradius 29.6653
lwrist -7.57169
lhand -19.6548 24.3225
lfingers 7.12502
lthumb 6.6731 54.1974
rfemur -4.38287 6.76388 -2.53408
rtibia 31.6406
rfoot -6.90789 -17.6784
rtoes 18.8307
lfemur 0.562543 -1.56503 -18.4004
ltibia 17.2041
lfoot -7.67719 2.88119
ltoes -24.9714
530
root 11.8479 17.6965 8.95842 -2.19826 1.26918 6.70883
lowerback 10.9867 2.07594 -1.12114
upperback 1.42803 2.66157 0.772531
thorax -4.75234 1.34027 1.03937
lowerneck -16.4694 1.67528 -9.7615
upperneck 41.9325 5.04586 3.5377
head 18.1282 1.03412 4.42749
rclavicle -7.95139e-016 2.22639e-014
rhumerus -34.9476 -19.5895 -65.845
rradius 35.0696
rwrist 5.01901
rhand -17.0568 9.32125
rfingers 7.12502
rthumb 9.18057 -20.4589
lclavicle -7.95139e-016 2.22639e-014
lhumerus -34.2425 11.1474 82.1786
lradius 29.943
lwrist -7.46377
lhand -19.7746 23.8087
lfingers 7.12502
lthumb 6.5574 53.6872
rfemur -4.84675 6.33744 -2.40882
rtibia 32.6348
rfoot -8.48092 -15.198
rtoes 15.6238
lfemur 0.35642 -1.37399 -18.8367
ltibia 17.6175
lfoot -8.11266 2.78445
ltoes -24.3139
531
root 11.9447 17.6847 8.94947 -2.26499 1.30923 6.5181
lowerback 11.1556 2.03632 -1.10327
upperback 1.41513 2.61365 0.852364
thorax -4.86135 1.31721 1.1138
lowerneck -16.4548 1.64036 -9.78691
upperneck 41.8186 4.95695 3.60641
head 18.0602 1.01016 4.43992
rclavicle -3.76697e-014 4.77083e-015
rhumerus -34.9319 -19.1425 -66.2239
rradius 35.2479
rwrist 5.02949
rhand -16.9983 9.64481
rfingers 7.12502
rthumb 9.23697 -20.1329
lclavicle -3.76697e-014 4.77083e-015
lhumerus -34.1553 10.6613 82.2219
lradius 30.335
lwrist -7.19566
lhand -20.0484 23.4909
lfingers 7.12502
lthumb 6.29312 53.3774
rfemur -5.25501 6.14012 -1.87642
rtibia 33.6818
rfoot -9.92807 -12.2866
rtoes 11.6135
lfemur 0.152869 -1.35876 -18.9484
ltibia 18.08
lfoot -8.45375 2.81032
ltoes -23.9304
532
root 12.0356 17.6818 8.94342 -2.36899 1.38355 6.29473
lowerback 11.2626 2.01672 -1.07005
upperback 1.48274 2.59449 0.929468
thorax -4.85151 1.30731 1.17628
lowerneck -16.5464 1.58585 -9.80937
upperneck 41.7371 4.82283 3.74818
head 18.0406 0.975506 4.48468
rclavicle 3.99557e-014 -7.95139e-015
rhumerus -34.8102 -18.9633 -66.6124
rradius 35.3341
rwrist 5.38347
rhand -17.0298 9.74998
rfingers 7.12502
rthumb 9.20654 -20.029
lclavicle 3.99557e-014 -7.95139e-015
lhumerus -34.0616 10.1011 82.273
lradius 30.9568
lwrist -6.98535
lhand -20.3852 23.2096
lfingers 7.12502
lthumb 5.96793 53.1055
rfemur -5.73521 6.01621 -1.19927
rtibia 34.7296
rfoot -11.2403 -9.17932
rtoes 6.95082
lfemur -0.0471714 -1.48464 -19.0368
ltibia 18.6322
lfoot -8.80263 2.93309
ltoes -23.7679
533
root 12.1218 17.6842 8.93618 -2.3916 1.61157 6.26113
lowerback 11.3394 1.92413 -1.29538
upperback 1.51336 2.44667 0.993956
thorax -4.86979 1.23901 1.39143
lowerneck -16.6813 1.53763 -9.82319
upperneck 41.6917 4.7518 3.77554
head 18.0557 0.947529 4.48929
rclavicle -1.87852e-014 -1.59028e-014
rhumerus -34.6957 -18.623 -67.0469
rradius 35.4999
rwrist 5.74027
rhand -16.9149 9.78879
rfingers 7.12502
rthumb 9.31741 -19.9853
lclavicle -1.87852e-014 -1.59028e-014
lhumerus -33.97 9.74867 82.2096
lradius 31.509
lwrist -6.79006
lhand -20.4761 22.8039
lfingers 7.12502
lthumb 5.8802 52.7023
rfemur -6.19454 5.71801 -0.693549
rtibia 35.7604
rfoot -13.0475 -6.00854
rtoes 1.58268
lfemur -0.378049 -1.61448 -19.3184
ltibia 19.2262
lfoot -9.11921 2.90076
ltoes -22.8955
534
root 12.2043 17.6798 8.93159 -2.36854 1.91049 6.35513
lowerback 11.36 1.83261 -1.64419
upperback 1.49001 2.28408 1.02738
thorax -4.91483 1.16613 1.64717
lowerneck -16.6748 1.46786 -9.85722
upperneck 41.6059 4.63285 3.80414
head 18.0138 0.902072 4.48129
rclavicle 1.47101e-014 -1.27222e-014
rhumerus -34.6798 -18.309 -67.3886
rradius 35.6037
rwrist 6.12597
rhand -16.6068 9.9897
rfingers 7.12502
rthumb 9.61474 -19.7709
lclavicle 1.47101e-014 -1.27222e-014
lhumerus -33.9152 9.42627 82.1131
lradius 32.0438
lwrist -6.23257
lhand -20.0333 22.5427
lfingers 7.12502
lthumb 6.30768 52.4288
rfemur -6.57176 5.27864 -0.300393
rtibia 36.7824
rfoot -15.076 -3.26031
rtoes -3.31768
lfemur -0.700016 -1.79637 -19.7372
ltibia 19.7435
lfoot -9.35381 2.8571
ltoes -22.1946
